<?xml version="1.0" encoding="utf-8"?>
<!-- Generator: Adobe Illustrator 15.0.0, SVG Export Plug-In . SVG Version: 6.00 Build 0)  -->
<!DOCTYPE svg PUBLIC "-//W3C//DTD SVG 1.1//EN" "http://www.w3.org/Graphics/SVG/1.1/DTD/svg11.dtd">
<svg version="1.1" xmlns="http://www.w3.org/2000/svg" xmlns:xlink="http://www.w3.org/1999/xlink" x="0px" y="0px"
	 width="907.09px" height="566.93px" viewBox="0 0 907.09 566.93" enable-background="new 0 0 907.09 566.93" xml:space="preserve">
<g id="圖層_7">
	<path fill="#FFD169" d="M216.737,418.827c-3.987,15.269-0.522,29.12,19.976,35.656c20.498,6.537,50.213,1.189,94.246-32.659
		c1.159-8.443,1.159-8.443,1.159-8.443l-10.202-1.966c0,0-51.336,31.257-75.833,16.504c-11.875-5.234-19.496-16.646-19.496-16.646
		s-4.455-3.173-9.237-6.868c-9.65,2.321-14.62,8.69-14.62,8.69L216.737,418.827z"/>
</g>
<g id="圖層_8">
	<path fill="#FFE369" d="M208.282,415.317c-7.474,20.483-13.847,45.936,5.401,59.99c19.245,14.051,61.344,26.163,125.576-1.351
		c5.3-9.824,5.3-9.824,5.3-9.824l-7.13-5.603c0,0-91.476,1.799-111.16-23.358c-6.199-18.324-3.628-25.984-3.628-25.984l6.72-4.938
		l5.106-9.437l-8.833-6.943l-29.899,16.321l-1.877,6.044l6.317,5.871L208.282,415.317z"/>
</g>
<g id="圖層_2">
	<path fill="#CFE800" d="M66.386,467.438c7.712,2.433,27.194,0.899,38.153,37.798c-4.177,16.744,49.399,18.277,35.717-8.43
		c-4.464-7.663-11.771-28.736-11.364-35.25c0.406-6.515,2.435-34.534,6.9-40.232c-11.365-3.782-29.779,8.813-29.779,8.813
		s-2.691,13.793-1.473,22.223c1.218,8.429,6.494,20.69,8.523,25.288c-6.494-7.663-11.771-19.924-19.077-24.521
		c-7.306-4.598-7.711-9.579-11.364-8.046c-3.652,1.532-3.652,2.682-5.276,4.598C75.722,451.594,69.633,461.175,66.386,467.438z"/>
	<path fill="#0AB338" d="M33.143,437.23c-6.772-7.215,4.515-23.031,19.026-11.1c-6.772-12.208,17.414-14.522,18.06-3.053
		c7.739-7.77,32.249-8.047,23.541,9.714c15.479-2.776,19.026,17.48,2.903,20.256c10.319,3.607-0.968,22.754-11.61,13.319
		c-1.612,12.487-29.991,12.765-28.056,1.11c-7.417,8.879-21.606,2.774-16.124-9.157c-13.222,2.497-17.368-7.154-8.361-12.04
		C21.211,445.556,25.403,435.565,33.143,437.23z"/>
	<path fill="#0AB338" d="M87.125,424.203c-6.772-7.215,4.515-23.032,19.026-11.1c-6.772-12.209,17.414-14.522,18.059-3.053
		c7.74-7.769,32.249-8.047,23.542,9.713c15.479-2.775,19.026,17.481,2.903,20.257c10.319,3.607-0.968,22.754-11.61,13.319
		c-1.612,12.487-29.991,12.765-28.057,1.11c-7.417,8.879-21.606,2.774-16.124-9.158c-13.222,2.498-17.367-7.152-8.361-12.04
		C75.193,432.527,79.385,422.539,87.125,424.203z"/>
</g>
<g id="圖層_1">
	<path fill="#0A9942" d="M48.494,411.362c-8.524-9.962,5.682-31.802,23.947-15.327c-8.524-16.859,21.917-20.053,22.729-4.214
		c9.741-10.729,40.587-11.112,29.628,13.411c19.482-3.832,23.947,24.138,3.653,27.97c12.988,4.981-1.217,31.419-14.611,18.392
		c-2.03,17.241-37.747,17.626-35.312,1.533c-9.335,12.26-27.194,3.831-20.294-12.645c-16.641,3.448-21.858-9.878-10.523-16.625
		C33.476,422.857,38.752,409.063,48.494,411.362z"/>
</g>
<g id="圖層_3">
	<path fill="#FF981F" d="M144.548,432.842c-6.928,1.634-17.766,5.979-16.454,25.757s9.212,50.384,20.089,57.826
		c10.876,7.444,16.506,4.545,18.979,3.077c2.474-1.468,5.564-1.705,8.843,0.864c3.279,2.568,17.179,4.733,22.297-1.308
		c5.118-6.039,18.459-43.68,7.696-78.195c-4.438-12.615-10.205-19.707-18.265-16.138c-5.557-4.686-15.48-1.559-19.159,0.192
		c-5.397-4.331-15.318-1.257-19.331,3.326C145.232,432.826,144.548,432.842,144.548,432.842z"/>
</g>
<g id="圖層_4">
	<path fill="#0A6642" d="M159.068,436.187c6.851-0.225,13.67,0.134,13.54,2.522c-0.131,2.39-0.198-8.899,5.618-8.942
		c-3.964-2.553-2.747-0.079-7.037-5.902c-0.895-11.637,0.437-23.478,3.979-25.723c-9.052-3.308-14.278-1.514-16.365-0.86
		c-0.347,6.336-0.833,21.487,2.336,26.047c-1.691,5.902-2.184,8.673-4.229,8.565C159.196,432.813,159.068,436.187,159.068,436.187z"
		/>
	<path fill="#FFB01F" d="M203.577,454.087c-0.656-5.745-5.584-16.561-8.208-14.706c-2.623,1.855-5.045,5.296-5.325,11.596
		c-0.28,6.3,3.782,15.414,6.069,17.842C198.399,471.247,205.483,470.759,203.577,454.087z"/>
</g>
<g id="圖層_11">
	<path fill="#E0CCD1" d="M199.871,537.906c-19.272-11.233-27.139-33.118-17.575-48.881c9.566-15.764,32.942-19.436,52.214-8.202
		c19.271,11.234,27.14,33.12,17.574,48.883C242.519,545.469,219.142,549.141,199.871,537.906z"/>
	<path fill="#F0E3D1" d="M202.576,536.054c-19.272-11.233-27.139-33.119-17.574-48.882s32.941-19.435,52.213-8.201
		c19.272,11.234,27.14,33.12,17.575,48.883C245.224,543.616,221.847,547.288,202.576,536.054z"/>
	<path fill="#EBDBD1" d="M241.536,506.68c-5.064,1.743-10.311-0.024-11.717-3.948c-1.406-3.925,1.56-8.519,6.625-10.263
		c5.066-1.743,10.312,0.024,11.717,3.948C249.566,500.342,246.6,504.936,241.536,506.68z"/>
	<path fill="#EBDBD1" d="M237.86,518.696c-5.243-4.943-11.248-7.165-13.41-4.962c-2.163,2.204,0.335,7.999,5.577,12.941
		c5.245,4.944,11.249,7.166,13.411,4.964C245.602,529.435,243.104,523.641,237.86,518.696z"/>
	<path fill="#E0CCD1" d="M221.047,496.452c-4.415,1.199-9.214-2.134-10.715-7.444c-1.502-5.31,0.861-10.589,5.279-11.789
		c4.415-1.199,9.212,2.134,10.715,7.443C227.828,489.973,225.465,495.251,221.047,496.452z"/>
	
		<ellipse transform="matrix(0.0028 -1 1 0.0028 -304.201 704.4012)" fill="#E0CCD1" cx="201.074" cy="504.722" rx="5.747" ry="8.547"/>
	<path fill="#EBDBD1" d="M223.181,501.335c-2.665-0.395-5.093,1.035-5.427,3.194c-0.333,2.159,1.556,4.229,4.221,4.625
		c2.664,0.395,5.093-1.036,5.427-3.194C227.734,503.801,225.844,501.73,223.181,501.335z"/>
	<path fill="#E0CCD1" d="M209.729,529.743c-3.698-1.388-5.234-6.262-3.431-10.888c1.807-4.627,6.27-7.25,9.967-5.865
		c3.698,1.387,5.234,6.262,3.432,10.888C217.89,528.504,213.427,531.128,209.729,529.743z"/>
	<path fill="#E0CCD1" d="M215.959,519.975c-7.771-20.615,0.16-42.479,17.712-48.834c17.554-6.355,38.082,5.203,45.853,25.817
		c7.771,20.615-0.161,42.479-17.712,48.835C244.257,552.147,223.729,540.589,215.959,519.975z"/>
	<path fill="#F0E3D1" d="M218.374,517.402c-7.772-20.614,0.16-42.478,17.712-48.833c17.553-6.356,38.081,5.202,45.852,25.816
		c7.771,20.615-0.16,42.479-17.712,48.835C246.672,549.575,226.143,538.017,218.374,517.402z"/>
	<path fill="#E0CCD1" d="M267.512,518.589c-5.056-1.767-8-6.376-6.574-10.293c1.426-3.919,6.68-5.661,11.736-3.894
		c5.057,1.768,8,6.376,6.575,10.294C277.823,518.613,272.568,520.355,267.512,518.589z"/>
	<path fill="#E0CCD1" d="M256.942,525.665c-0.903-7.076-4.144-12.505-7.24-12.126c-3.095,0.38-4.874,6.424-3.97,13.499
		c0.903,7.077,4.144,12.506,7.239,12.127C256.068,538.785,257.845,532.741,256.942,525.665z"/>
	<path fill="#E0CCD1" d="M258.15,498.007c-4.202-1.79-5.793-7.34-3.552-12.394c2.241-5.054,7.465-7.7,11.67-5.909
		c4.202,1.79,5.792,7.339,3.552,12.393C267.579,497.15,262.355,499.797,258.15,498.007z"/>
	<path fill="#E0CCD1" d="M241.017,487.662c3.663,2.92,4.973,7.284,2.929,9.745c-2.044,2.463-6.67,2.092-10.332-0.829
		c-3.663-2.92-4.973-7.283-2.929-9.745S237.356,484.742,241.017,487.662z"/>
	<path fill="#E0CCD1" d="M256.674,503.117c-1.817-1.949-4.624-2.335-6.269-0.863c-1.645,1.474-1.505,4.247,0.312,6.197
		c1.817,1.95,4.625,2.336,6.27,0.864C258.631,507.842,258.491,505.068,256.674,503.117z"/>
	<path fill="#E0CCD1" d="M227.985,516.906c-1.984-3.358-0.05-8.094,4.32-10.578c4.375-2.482,9.528-1.77,11.513,1.586
		c1.984,3.358,0.049,8.096-4.32,10.58C235.124,520.975,229.971,520.264,227.985,516.906z"/>
</g>
<g id="圖層_10">
	<path fill="#E0CCD1" d="M268.435,524.796c1.294,2.135,1.149,4.563-0.326,5.423s-3.721-0.175-5.016-2.311
		c-1.295-2.135-1.149-4.563,0.326-5.422C264.894,521.627,267.14,522.66,268.435,524.796z"/>
	<path fill="#E0CCD1" d="M199.013,492.098c2.433,1.887,5.387,2.198,6.597,0.7c1.211-1.502,0.221-4.249-2.211-6.135
		c-2.434-1.886-5.388-2.197-6.598-0.697C195.59,487.467,196.579,490.211,199.013,492.098z"/>
	<ellipse fill="#E0CCD1" cx="273.946" cy="499.574" rx="3.11" ry="2.677"/>
	<path fill="#E0CCD1" d="M250.496,477.293c0.782,2.881-0.21,5.641-2.215,6.164s-4.267-1.389-5.048-4.269
		c-0.783-2.882,0.209-5.641,2.215-6.163C247.452,472.502,249.713,474.411,250.496,477.293z"/>
	<path fill="#E0CCD1" d="M195.348,516.678c2.163-1.292,4.643-1.175,5.535,0.262c0.894,1.436-0.138,3.648-2.302,4.94
		c-2.164,1.293-4.643,1.176-5.536-0.261C192.153,520.184,193.184,517.971,195.348,516.678z"/>
</g>
<g id="圖層_5">
	<path fill="#FF2B3D" d="M119.252,546.286c-29.29,1.933-44.908-12.001-45.34-27.136c-0.432-15.137,11.659-35.913,45.34-35.913
		c33.681,0,38.43,24.516,37.566,31.037C155.956,520.796,150.774,544.206,119.252,546.286z"/>
</g>
<g id="圖層_6">
	<path fill="#197040" d="M130.171,479.799c13.631,4.279,18.713,9.013,20.933,16.117c-9.117-5.936-16.491-4.834-18.114-4.834
		c2.433,3.423,3.245,8.699-2.759,12.122c-0.649-5.99-7.199-8.786-10.445-8.358c-2.11,2.425-3.733,5.562-9.899,6.56
		c3.084-5.847,4.219-7.985,1.785-9.127c-3.246,2.567-11.196,5.134-18.499,2.71c7.302-3.993,8.6-4.707,8.925-6.703
		c0,0-20.608,6.275-22.393-5.277c10.223,0.571,12.63,1.108,22.069-3.194c8.763-3.993,14.28-3.509,16.551-3.081
		c0.973-3.993,1.46-5.99-0.974-10.269c4.869-1.141,4.869-1.141,4.869-1.141s5.354,4.137,0,12.408
		C128.457,479.515,130.171,479.799,130.171,479.799z"/>
</g>
</svg>
