<?xml version="1.0" encoding="utf-8"?>
<!-- Generator: Adobe Illustrator 15.0.0, SVG Export Plug-In . SVG Version: 6.00 Build 0)  -->
<!DOCTYPE svg PUBLIC "-//W3C//DTD SVG 1.1//EN" "http://www.w3.org/Graphics/SVG/1.1/DTD/svg11.dtd">
<svg version="1.1" xmlns="http://www.w3.org/2000/svg" xmlns:xlink="http://www.w3.org/1999/xlink" x="0px" y="0px"
	 width="907.09px" height="566.93px" viewBox="0 0 907.09 566.93" enable-background="new 0 0 907.09 566.93" xml:space="preserve">
<g id="圖層_7">
</g>
<g id="圖層_8">
</g>
<g id="圖層_2">
</g>
<g id="圖層_1">
	<g>
		<path fill="#CFE800" d="M84.635,447.241c6.983,2.212,24.622,0.817,34.544,34.378c-3.782,15.229,44.726,16.624,32.339-7.668
			c-4.042-6.969-10.658-26.137-10.29-32.061c0.367-5.925,2.205-31.409,6.247-36.592c-10.29-3.44-26.963,8.016-26.963,8.016
			s-2.437,12.545-1.333,20.212c1.103,7.667,5.879,18.819,7.717,23.001c-5.879-6.97-10.657-18.121-17.273-22.304
			c-6.614-4.182-6.981-8.712-10.289-7.318c-3.307,1.395-3.307,2.44-4.777,4.183C93.087,432.829,87.575,441.544,84.635,447.241z"/>
		<path fill="#0AB338" d="M54.537,419.767c-6.132-6.563,4.088-20.948,17.227-10.097c-6.131-11.104,15.767-13.208,16.351-2.776
			c7.007-7.066,29.198-7.318,21.314,8.835c14.015-2.524,17.227,15.9,2.628,18.424c9.343,3.281-0.876,20.695-10.512,12.114
			c-1.459,11.357-27.154,11.609-25.402,1.01c-6.716,8.075-19.563,2.523-14.599-8.328c-11.971,2.27-15.725-6.508-7.57-10.952
			C43.733,427.338,47.529,418.252,54.537,419.767z"/>
		<path fill="#0AB338" d="M103.412,407.917c-6.131-6.563,4.088-20.948,17.227-10.095c-6.131-11.105,15.767-13.21,16.351-2.777
			c7.007-7.065,29.198-7.319,21.314,8.834c14.015-2.524,17.227,15.9,2.628,18.425c9.343,3.28-0.876,20.694-10.512,12.113
			c-1.46,11.358-27.154,11.61-25.402,1.01c-6.715,8.077-19.563,2.523-14.599-8.328c-11.971,2.271-15.724-6.506-7.57-10.951
			C92.608,415.488,96.404,406.403,103.412,407.917z"/>
		<path fill="#0A9942" d="M68.436,396.238c-7.718-9.062,5.144-28.925,21.681-13.941c-7.717-15.333,19.844-18.238,20.579-3.831
			c8.82-9.76,36.749-10.108,26.826,12.196c17.64-3.485,21.682,21.954,3.307,25.439c11.76,4.531-1.102,28.577-13.229,16.728
			c-1.837,15.682-34.176,16.032-31.971,1.395c-8.452,11.151-24.622,3.485-18.375-11.5c-15.067,3.136-19.791-8.984-9.528-15.121
			C54.838,406.693,59.615,394.146,68.436,396.238z"/>
	</g>
</g>
<g id="圖層_3">
</g>
<g id="圖層_4">
	<g>
		<path fill="#FF981F" d="M157.884,450.675c-6.272,1.485-16.085,5.438-14.897,23.427c1.187,17.988,8.34,45.825,18.188,52.595
			c9.847,6.77,14.945,4.133,17.185,2.798c2.24-1.334,5.037-1.55,8.006,0.786c2.969,2.337,15.555,4.305,20.188-1.189
			c4.633-5.492,16.713-39.728,6.967-71.12c-4.018-11.475-9.24-17.925-16.537-14.679c-5.031-4.261-14.017-1.416-17.347,0.176
			c-4.887-3.939-13.87-1.143-17.502,3.024C158.504,450.66,157.884,450.675,157.884,450.675z"/>
		<path fill="#0A6642" d="M171.031,453.717c6.203-0.204,12.377,0.122,12.258,2.294c-0.118,2.175-0.179-8.094,5.087-8.133
			c-3.589-2.323-2.487-0.071-6.371-5.369c-0.81-10.583,0.396-21.353,3.603-23.396c-8.195-3.009-12.928-1.376-14.817-0.782
			c-0.314,5.763-0.755,19.543,2.115,23.69c-1.53,5.368-1.978,7.888-3.829,7.79C171.146,450.648,171.031,453.717,171.031,453.717z"/>
		<path fill="#FFB01F" d="M211.33,469.998c-0.594-5.226-5.056-15.063-7.432-13.375c-2.374,1.687-4.568,4.816-4.821,10.545
			c-0.254,5.731,3.424,14.02,5.495,16.229C206.641,485.605,213.055,485.16,211.33,469.998z"/>
	</g>
</g>
<g id="圖層_11">
</g>
<g id="圖層_10">
	<g>
		<path fill="#E0CCD1" d="M45.492,514.172C28.043,503.955,20.92,484.05,29.58,469.714c8.662-14.337,29.827-17.678,47.275-7.461
			c17.449,10.219,24.573,30.125,15.912,44.46C84.106,521.051,62.94,524.391,45.492,514.172z"/>
		<path fill="#F0E3D1" d="M47.942,512.487c-17.45-10.217-24.572-30.123-15.912-44.459c8.661-14.338,29.826-17.677,47.274-7.46
			c17.449,10.218,24.573,30.124,15.912,44.46C86.555,519.366,65.39,522.705,47.942,512.487z"/>
		<path fill="#EBDBD1" d="M83.216,485.771c-4.585,1.585-9.336-0.021-10.609-3.591c-1.273-3.569,1.413-7.748,5.998-9.334
			c4.587-1.585,9.336,0.021,10.609,3.591C90.487,480.006,87.801,484.185,83.216,485.771z"/>
		<path fill="#EBDBD1" d="M79.888,496.701c-4.748-4.498-10.184-6.519-12.142-4.514c-1.958,2.004,0.303,7.275,5.05,11.771
			c4.749,4.497,10.184,6.518,12.142,4.514C86.897,506.467,84.636,501.197,79.888,496.701z"/>
		<path fill="#E0CCD1" d="M64.666,476.469c-3.998,1.09-8.342-1.941-9.702-6.771c-1.359-4.83,0.78-9.631,4.78-10.723
			c3.998-1.092,8.342,1.94,9.701,6.77C70.805,470.575,68.666,475.376,64.666,476.469z"/>
		
			<ellipse transform="matrix(0.0027 -1 1 0.0027 -437.5331 529.2606)" fill="#E0CCD1" cx="46.582" cy="483.99" rx="5.228" ry="7.739"/>
		<path fill="#EBDBD1" d="M66.598,480.909c-2.413-0.359-4.612,0.941-4.914,2.905s1.408,3.847,3.821,4.206
			c2.412,0.359,4.612-0.941,4.915-2.904C70.721,483.151,69.009,481.27,66.598,480.909z"/>
		<path fill="#E0CCD1" d="M54.418,506.747c-3.348-1.262-4.738-5.695-3.106-9.902c1.636-4.208,5.677-6.595,9.025-5.334
			c3.348,1.261,4.739,5.694,3.107,9.901C61.807,505.62,57.766,508.007,54.418,506.747z"/>
		<path fill="#E0CCD1" d="M60.059,497.862c-7.037-18.749,0.145-38.635,16.037-44.415c15.893-5.781,34.48,4.731,41.516,23.481
			s-0.146,38.636-16.038,44.416C85.681,527.125,67.093,516.612,60.059,497.862z"/>
		<path fill="#F0E3D1" d="M62.245,495.523c-7.037-18.749,0.145-38.635,16.037-44.415c15.892-5.781,34.479,4.731,41.515,23.481
			c7.036,18.749-0.145,38.636-16.037,44.416C87.866,524.786,69.28,514.272,62.245,495.523z"/>
		<path fill="#E0CCD1" d="M106.736,496.603c-4.578-1.606-7.244-5.799-5.953-9.361c1.291-3.565,6.048-5.149,10.626-3.541
			c4.578,1.607,7.243,5.798,5.953,9.362C116.071,496.625,111.313,498.21,106.736,496.603z"/>
		<path fill="#E0CCD1" d="M97.166,503.038c-0.817-6.436-3.752-11.373-6.556-11.029c-2.802,0.346-4.412,5.844-3.594,12.278
			c0.817,6.436,3.751,11.375,6.554,11.029C96.374,514.971,97.983,509.474,97.166,503.038z"/>
		<path fill="#E0CCD1" d="M98.259,477.882c-3.804-1.628-5.245-6.675-3.215-11.271c2.028-4.597,6.759-7.004,10.566-5.375
			c3.804,1.628,5.245,6.675,3.216,11.271C106.796,477.104,102.066,479.511,98.259,477.882z"/>
		<path fill="#E0CCD1" d="M82.747,468.474c3.316,2.656,4.503,6.625,2.652,8.863c-1.851,2.24-6.04,1.902-9.354-0.754
			c-3.316-2.655-4.502-6.624-2.652-8.863C75.243,465.48,79.432,465.818,82.747,468.474z"/>
		<path fill="#E0CCD1" d="M96.922,482.531c-1.646-1.773-4.187-2.125-5.675-0.785c-1.49,1.339-1.363,3.862,0.282,5.637
			c1.646,1.772,4.187,2.124,5.676,0.785C98.695,486.828,98.567,484.305,96.922,482.531z"/>
		<path fill="#E0CCD1" d="M70.947,495.072c-1.796-3.055-0.045-7.361,3.912-9.621c3.961-2.259,8.627-1.609,10.424,1.442
			c1.796,3.055,0.045,7.363-3.912,9.623C77.411,498.772,72.745,498.125,70.947,495.072z"/>
		<path fill="#E0CCD1" d="M107.571,502.249c1.172,1.94,1.04,4.15-0.295,4.931c-1.336,0.782-3.369-0.158-4.542-2.101
			c-1.172-1.942-1.04-4.149,0.295-4.933C104.364,499.365,106.398,500.306,107.571,502.249z"/>
		<path fill="#E0CCD1" d="M44.715,472.508c2.203,1.716,4.877,2,5.973,0.637c1.097-1.366,0.2-3.865-2.002-5.58
			c-2.204-1.714-4.878-1.997-5.974-0.634C41.616,468.295,42.512,470.792,44.715,472.508z"/>
		<ellipse fill="#E0CCD1" cx="112.561" cy="479.309" rx="2.816" ry="2.434"/>
		<path fill="#E0CCD1" d="M91.328,459.043c0.708,2.619-0.19,5.13-2.005,5.606c-1.816,0.476-3.863-1.264-4.571-3.883
			c-0.709-2.621,0.189-5.131,2.005-5.605C88.573,454.685,90.62,456.421,91.328,459.043z"/>
		<path fill="#E0CCD1" d="M41.397,494.864c1.959-1.175,4.205-1.068,5.012,0.237c0.809,1.307-0.125,3.319-2.084,4.495
			c-1.959,1.174-4.203,1.068-5.012-0.238C38.504,498.054,39.438,496.04,41.397,494.864z"/>
	</g>
</g>
<g id="圖層_5">
</g>
<g id="圖層_6">
	<g>
		<path fill="#FF2B3D" d="M130.591,545.982c-26.52,1.758-40.66-10.915-41.051-24.682c-0.391-13.767,10.556-32.664,41.051-32.664
			c30.496,0,34.796,22.299,34.014,28.23C163.823,522.799,159.131,544.091,130.591,545.982z"/>
		<path fill="#197040" d="M140.479,485.511c12.341,3.891,16.943,8.196,18.953,14.658c-8.255-5.398-14.932-4.397-16.401-4.397
			c2.204,3.113,2.938,7.913-2.498,11.027c-0.588-5.449-6.519-7.992-9.458-7.603c-1.91,2.205-3.379,5.059-8.962,5.966
			c2.792-5.318,3.821-7.264,1.617-8.302c-2.939,2.336-10.137,4.669-16.749,2.466c6.611-3.633,7.786-4.281,8.08-6.097
			c0,0-18.659,5.707-20.275-4.801c9.257,0.52,11.435,1.008,19.981-2.905c7.934-3.632,12.929-3.191,14.985-2.802
			c0.882-3.632,1.322-5.448-0.881-9.34c4.408-1.037,4.408-1.037,4.408-1.037s4.848,3.762,0,11.285
			C138.926,485.251,140.479,485.511,140.479,485.511z"/>
	</g>
</g>
</svg>
